<?xml version="1.0" encoding="utf-8"?>
<svg version="1.1" id="note" xmlns="http://www.w3.org/2000/svg" xmlns:xlink="http://www.w3.org/1999/xlink" x="0px" y="0px"
	 viewBox="0 0 212.6 212.6" style="enable-background:new 0 0 212.6 212.6;" xml:space="preserve">
<style type="text/css">
	.st0{fill-rule:evenodd;clip-rule:evenodd;fill:#3C3C3C;}
</style>
<path id="note" class="st0" d="M85.2,74.5V60.1c0-2.6,0.1-3.5,0.5-4.8c1.1-3.7,4.7-6.4,9-6.4s8,2.8,9,6.4c0.4,1.3,0.5,2.2,0.5,4.8
	v22.2c0,1.3,0,2.7-0.3,3.9c-0.7,3.4-3.8,6.4-7.1,7.1c-1.2,0.3-2.6,0.3-3.9,0.3H70.8c-2.6,0-3.5-0.1-4.9-0.5c-3.6-1.1-6.5-4.7-6.5-9
	c0-4.3,2.8-7.9,6.5-9c1.3-0.4,2.2-0.5,4.9-0.5H85.2z M164.4,175H45.2V70.3c0-1.3,0.5-2.5,1.4-3.4L77.5,36c0.9-0.9,2.1-1.4,3.4-1.4
	h83.5V175z M178,10.9c-0.6-0.1-1.4-0.1-3-0.1H77.8c-1.1,0-2.2,0.1-2.9,0.1c-4.4,0.4-8.4,2.5-11.6,5.6L27.1,52.7
	c-3.2,3.2-5.3,7.1-5.7,11.6c-0.1,0.7-0.1,1.8-0.1,2.9v118.5c0,1.5,0.1,2.4,0.1,3c0.5,5,5.1,9.6,10.2,10.1c0.6,0.1,1.4,0.1,3,0.1H175
	c1.5,0,2.4-0.1,3-0.1c5.1-0.5,9.6-5.1,10.2-10.1c0.1-0.6,0.1-1.4,0.1-3V24c0-1.5-0.1-2.4-0.1-3C187.6,16,183,11.5,178,10.9z"/>
</svg>
