<svg id="adult-bird" xmlns="http://www.w3.org/2000/svg" viewBox="0 0 200 215"><defs><style>.cls-1{fill:#3c3c3c;}</style></defs><title>niwatori</title><g id="シルエット"><path class="cls-1" d="M199.34,64.68s-.73-3.52-15-10.1l-.93-.42c-6.95-8.26-19.85-19.8-31.11-21.37-1.61-.22-3.13-.43-4.61-.6,1.72-.46,3-.77,3.55-.87,4.11-.72,23-4.35,26.82-5.07s13.09-3.75,11.84-4.11a20,20,0,0,0-6.52-1.06c-3.73,0-10.63-3.29-16.19-3.77-4.65-.4-12.86.55-26.85,2.51,3.23-2.5,6.45-5,9.56-7.59,1.32-1.1,11.83-11.38,13-11-2.31-.73-7.09,1.28-10.31,2.25-2.08.63-4.28,1.75-10.32,4.89s-18.6,9.66-22,12.71c-.81.74-2.17,1.84-3.83,3.29-9.66,3.23-15.56,8.31-21.8,17.06-3.06,4.28-4.48,10-5,15.73a6.61,6.61,0,0,0-1-1.28,14.21,14.21,0,0,1,.79,4.35c0,.44,0,.88,0,1.32A7.67,7.67,0,0,1,89.18,63c-1-.6-1.45-2.65-1.47-4.1.58-2.3-.94-6.29-.94-6.29.6,1.57-.37,3.63-1.33,7.25a12.12,12.12,0,0,0,.12,6.64c-3.62-1.2-4.71-7.73-4.71-7.73s-1,2.3,1.33,7.73,5.53,5.92,5.53,5.92c-4.62.24-6.86-4.69-6.86-4.69a22.91,22.91,0,0,0,2.29,4.21c1.21,1.57,4.57,3.49,4.57,3.49l-6-1.82,3.07,2.58c-6.07-2-11.86-5.69-14.82-11.36a27.86,27.86,0,0,1-2.44-7.17c-.7-3.31-.37-6.71-.52-10.08s-.52-6.91-2.31-9.87c-.07-.12-.15-.22-.22-.34.49.58,1,1.11,1.3,1.45,1.67,1.67,5.42-.36,6.14-5.54.81-5.8-4.88-9.21-3.37-13.6C69.71,16.19,74,13.3,74,13.3c-6-1.77-15.3,3.3-15.3,3.3a9.76,9.76,0,0,1,1.45-7.27s-3.91-.25-7.82,6.26c-1.5,2.49-3,5.32-3.53,5.33s-.29-1,.06-2.4c.53-2.19,2.68-5.79,2.2-5.91-1.33-.34-4.15,2.62-6.45,5.49l-4.52,5.65C40.49,21.12,44,17,44,17s-.51-1-6.78,5.2C32.35,27,33,30.43,33.49,31.71c-.66-.63-1.89-1-4.5-1.74a20.14,20.14,0,0,0-5.19-.21h-.32a9.39,9.39,0,0,0-2.52.62,6.94,6.94,0,0,0-4.05,3.51l0,.05a5,5,0,0,0-.34.93s0,.09-.05.14h0a.28.28,0,0,0,0,.06c4.43-.48,8.73,2.31,12.35,4.33l-.25.3a3.62,3.62,0,0,0-.22.32,5.83,5.83,0,0,0-1.74.93s-8.32,6.48-10.92,8.95-5.85,5.77-5.51,9.83.89,6.94,3.35,9.54a27.39,27.39,0,0,1,2,2.42c-2.18,4.21-4.09,7.81-5,9.54C6.83,88.33,2.7,96.55,2.1,104.65a29.94,29.94,0,0,0,0,4.72l-.1-.11c.08,1.27.8,5.9,1.28,8.07,1,4.35,2.09,9,2.17,11.62a26,26,0,0,1-.84,7.35s3-2.78,3.69-9.93a46.56,46.56,0,0,0,6.13,7.26c2.18,4.06,3.93,7.75,3.58,10.77a61.34,61.34,0,0,0,.63-7.05c.51.41,1,.83,1.59,1.24.79.59,1.6,1.15,2.42,1.69a13,13,0,0,1-.29,6.43c-.4,1,1.21-1,1.75-5.49a76.54,76.54,0,0,0,19.06,7.86h0s.37.27,1,.74c-.32,1.91-.34,3.61.23,4.57a18.78,18.78,0,0,1,.41-4.07,70.52,70.52,0,0,1,5.39,4.76c3.38,3.34,4.19,5.43,6.6,5.76a9.46,9.46,0,0,0,1.14.06c-.79,3.8-3.31,15.55-4.52,17.17a9.51,9.51,0,0,1-5.29,3.87c-2.12.48-8.72,1.12-9.37,1.45s-4.51,3.38-4.51,5a5.58,5.58,0,0,0,2.1-.73c1.12-.64,2.41-1.69,3.22-1.85a60.67,60.67,0,0,1,7.29-.12c-2.38,1.17-5.58,2.78-7.13,3.66-1.13.65-3.87,3.55-4,4.35s-1,1.94,0,1.61,3.55-2.9,4.19-2.9,8.54-2.9,10.47-3.38l-3.22,10.31s-.78,5.15.19,5.48,1.6-2.83,1.6-2.83L50,198.2l4.35-7.89s3.25-3.06,3.8-3.7A11.19,11.19,0,0,1,60.58,185s.91-1.35,3-.57c1.36.51,1.45,0,3.26.61s1.33.08.36-1.21-3-1.58-4.56-2.36a10,10,0,0,0-3.62-1.14s6.33-20.94,7.27-22.8c0,0,0,0,0,0a3.5,3.5,0,0,0,.29-.54c.2-.47.42-.89.64-1.3a14.89,14.89,0,0,1,1.68.94s6.61,5.45,9.5,6.29A68.17,68.17,0,0,1,80.07,172c.09,2.82.81,10.79-1,13.37a15.92,15.92,0,0,0-2.1,3.38s-5.71,4-7.73,4.67-6.76,5.15-6.68,6.12.24,1.05,2.09,0,4.59-2.42,4.59-2.42,9.62-3,11.64-2.87L80.56,193s3.7,8.37,3.78,8.62,2.42,6.6,2.82,7.32,2,5.8,3.14,5.48.4-6.36.4-6.36L89,200.22l-1.61-7.43a.89.89,0,0,0,.65.58c.8.16,10.87,2.58,10.87,2.58a16,16,0,0,1,3.54.8c1.77.65,3.79,3,4.35,2.66s-2.34-4.35-4.59-6.2-6.12-2.66-7.81-3.14-2.9-1.77-5.07-3.38a13,13,0,0,1-2.5-2.1s-.73-11.67-.4-15.14c.22-2.41.76-5.72,1.2-7.89.88-.76,1.43-2.33,2-6.51.49-4,1.89-7.86,3.34-9.07a94.41,94.41,0,0,1,8.82-6.52c4.1-2.66,13.16-10.87,15.94-22.71,0,0,.12-.24.31-.67a97.58,97.58,0,0,0-.87,15.6,48.34,48.34,0,0,1-4,5,47.59,47.59,0,0,0,4.1-3.86,68,68,0,0,0,2,13.46c-.55-3.3-.78-8.76.91-16.76,4.5-5.39,9.84-13.59,11.79-23.77a50,50,0,0,0,.2-19c3.47,4.58,6.47,10.18,7.54,14.91,1.69,7.49,3.39,15.08-.23,24.26,0,0,4.83-3.55,5.79-21.59.3-5.48-.71-17.31-5.84-25.84.56.6,1.14,1.23,1.72,1.91,7.49,8.7,9.91,14.26,11.84,20.78.13.41.25.85.39,1.31-1.56,14.87-6.55,29.89-10.78,35.17,0,0,1.21-.24,6.29-7.49a90.57,90.57,0,0,0,8.27-14,71.19,71.19,0,0,1,1.63,7c1,12.73-1.92,22.72-2.89,24.65l2.42-2.9s8.65-18.36,3.64-42.92a55.17,55.17,0,0,0,.46-21.12,65.5,65.5,0,0,0-2.4-9.59,49.3,49.3,0,0,1,10.7,13.4c4.59,8,5.48,26.09,3.54,37.36,0,0,8.38-18.68,4.83-39.23-1.73-10-8.65-19.06-14.13-24.91,1.51.07,3,.16,4.46.26a74.58,74.58,0,0,1,8.08,1.09l.14.12c13,12.1,7.25,33,7.25,33A26.49,26.49,0,0,0,189,83c1.62-6.2,1.68-15.07-.64-21.24C194.09,63.37,198.36,64.81,199.34,64.68ZM48.17,185l.3-.15-.31.15ZM61.56,34.08A34.5,34.5,0,0,0,58,31.36,17.81,17.81,0,0,0,56,30.12,19.76,19.76,0,0,1,61.56,34.08Zm-26.9-1.59-.51.42a5.11,5.11,0,0,0-.22-.6A3.24,3.24,0,0,0,34.66,32.49Z"/><path class="cls-1" d="M119.22,146.27a14.28,14.28,0,0,0,1.11,3.93C119.9,148.86,119.55,147.56,119.22,146.27Z"/></g></svg>