<svg id="sealingstamp" xmlns="http://www.w3.org/2000/svg" viewBox="0 0 60 60"><defs><style>.cls-1{fill:#460407;}.cls-2{fill:#ca3233;}.cls-3{fill:#9b1e23;}.cls-4{fill:#470408;}.cls-5,.cls-6,.cls-7{fill:none;stroke-miterlimit:10;}.cls-5{stroke:#460407;opacity:0.8;}.cls-5,.cls-7{stroke-width:2px;}.cls-6{stroke:#c03332;}.cls-7{stroke:#941f23;}</style></defs><title>sealingstamp</title><path class="cls-1" d="M45.33,6.59c-3.72,0-5.52-4.11-13-2.83C26,4.83,17.6,2.2,15.05,7.44S11.79,15.5,10,17.62s-8.77,7.93-5.8,13.31,4,12.59,4.53,15.42,5.1,6.37,7.64,7.36S21.42,57.81,26,58s12.17-.84,15.56-.42,6.51.28,10.9-5.8,6.94-12.37,5.94-18.68c-.42-2.69,1.56-12-.56-17C56.58,13.27,50.14,6.59,45.33,6.59Z"/><path class="cls-2" d="M42.53,5.13C38.8,5.13,37,1,29.51,2.3,23.19,3.38,14.79.75,12.24,6S9,14.05,7.15,16.17s-8.78,7.93-5.8,13.3,4,12.6,4.52,15.43,5.1,6.37,7.65,7.36,5.09,4.1,9.62,4.24,12.17-.85,15.57-.42,6.5.28,10.89-5.8S56.54,37.9,55.54,31.6c-.42-2.69,1.56-12-.56-17C53.78,11.81,47.34,5.13,42.53,5.13Z"/><path class="cls-3" d="M44.65,5.9c-3.72,0-5.52-4.1-13-2.83C25.31,4.15,16.91,1.52,14.37,6.75s-3.26,8.07-5.1,10.19S.5,24.87,3.47,30.24s4,12.6,4.53,15.43S13.09,52,15.64,53s5.1,4.1,9.62,4.24,12.17-.85,15.57-.42,6.51.28,10.9-5.8,6.94-12.38,5.94-18.68c-.43-2.69,1.56-12-.57-17C55.9,12.58,49.46,5.9,44.65,5.9Z"/><path class="cls-2" d="M39.07,15.94c-4.46,1.07-9,6-13.52,14.68l-.44.87a8,8,0,0,0-5.27-1.94,4.8,4.8,0,0,0-3.56,1.94,4,4,0,0,0-.54,4.09,5.18,5.18,0,0,0,4.06,3.08c2.78.32,4.61-1.84,5.93-4.08a9.06,9.06,0,0,0,9,1.66c2.58,2.71,8.71,2.7,11.6,2.15a1,1,0,1,0-.37-2c-2.59.49-7.3.37-9.38-1.16.12-.09.26-.12.38-.21a4.4,4.4,0,0,0,1.67-3.57,5.22,5.22,0,0,0-.24-1.55,4.56,4.56,0,0,0-1.82-2.45c.18-.45.37-.9.56-1.34l.43-1L38.46,23c1.44-3.31,2.08-4.89,2.08-5.82a1.26,1.26,0,0,0-.29-.86A1.16,1.16,0,0,0,39.07,15.94Zm-.87,2.43c-.4,1.12-1.09,2.71-1.57,3.82l-.94,2.18-.42,1c-.19.46-.39.94-.58,1.43a4.94,4.94,0,0,0-.53-.1A9.36,9.36,0,0,0,29,28.55C32.73,22.16,35.88,19.43,38.2,18.37ZM20,36.67a3.2,3.2,0,0,1-2.45-1.86,2,2,0,0,1,.27-2.09A2.87,2.87,0,0,1,20,31.54a6.37,6.37,0,0,1,4.19,1.75C23.12,35.14,21.79,36.88,20,36.67Zm14-8a12.2,12.2,0,0,0-.63,3.63,7.52,7.52,0,0,0,.33,2.2A7.21,7.21,0,0,1,26.93,33C29.22,30.51,32.11,28.7,34,28.7Zm1.37,3.62a10.34,10.34,0,0,1,.49-2.85,2.91,2.91,0,0,1,.61,1.06,3.27,3.27,0,0,1,.15,1,2.43,2.43,0,0,1-.86,2c-.07,0-.14.06-.21.11A5.8,5.8,0,0,1,35.37,32.32Z"/><path class="cls-4" d="M39.65,17.08c-4.45,1.07-9,6-13.51,14.68l-.44.86a8.07,8.07,0,0,0-5.27-1.94,4.87,4.87,0,0,0-3.57,2,4,4,0,0,0-.54,4.09,5.21,5.21,0,0,0,4.07,3.08c2.77.32,4.61-1.85,5.92-4.08a9.07,9.07,0,0,0,9,1.66c2.59,2.71,8.72,2.7,11.6,2.15a1,1,0,1,0-.37-2c-2.58.49-7.29.37-9.38-1.16.13-.09.27-.12.39-.21a4.4,4.4,0,0,0,1.67-3.57A5.22,5.22,0,0,0,39,31.08a4.57,4.57,0,0,0-1.82-2.45c.18-.45.37-.9.55-1.34l.43-1,.92-2.13c1.44-3.31,2.07-4.89,2.07-5.82a1.26,1.26,0,0,0-.29-.86A1.15,1.15,0,0,0,39.65,17.08Zm-.86,2.43c-.41,1.12-1.09,2.71-1.58,3.82l-.93,2.18-.42,1-.59,1.43a3.1,3.1,0,0,0-.53-.1,9.36,9.36,0,0,0-5.16,1.85C33.32,23.3,36.47,20.57,38.79,19.51ZM20.62,37.81A3.18,3.18,0,0,1,18.17,36a2,2,0,0,1,.27-2.09,2.82,2.82,0,0,1,2.13-1.18,6.32,6.32,0,0,1,4.18,1.75C23.7,36.28,22.37,38,20.62,37.81Zm14-8A12.14,12.14,0,0,0,34,33.47a7.51,7.51,0,0,0,.32,2.2,7.21,7.21,0,0,1-6.77-1.54C29.81,31.65,32.69,29.84,34.59,29.84ZM36,33.46a10,10,0,0,1,.49-2.85,2.84,2.84,0,0,1,.61,1.06,3.27,3.27,0,0,1,.15,1,2.43,2.43,0,0,1-.86,2c-.07,0-.14.06-.21.11A5.8,5.8,0,0,1,36,33.46Z"/><path class="cls-3" d="M39.27,16.73c-4.45,1.07-9,6-13.51,14.69l-.44.86a8,8,0,0,0-5.27-1.94,4.89,4.89,0,0,0-3.57,1.94,4,4,0,0,0-.54,4.09A5.19,5.19,0,0,0,20,39.45c2.77.33,4.61-1.84,5.92-4.08a9.07,9.07,0,0,0,9,1.67c2.58,2.71,8.72,2.69,11.6,2.15a1,1,0,1,0-.37-2c-2.58.49-7.29.38-9.38-1.16.13-.08.27-.11.39-.2a4.4,4.4,0,0,0,1.66-3.57,5.27,5.27,0,0,0-.23-1.56,4.54,4.54,0,0,0-1.82-2.44c.18-.46.37-.91.55-1.34l.43-1,.91-2.14c1.45-3.3,2.08-4.89,2.08-5.82a1.28,1.28,0,0,0-.29-.86A1.15,1.15,0,0,0,39.27,16.73Zm-.86,2.43C38,20.29,37.32,21.87,36.83,23l-.93,2.18-.42,1-.59,1.42c-.18,0-.34-.09-.53-.1a9.37,9.37,0,0,0-5.16,1.86C32.94,23,36.09,20.23,38.41,19.16ZM20.24,37.47a3.17,3.17,0,0,1-2.45-1.87,2,2,0,0,1,.27-2.09,2.81,2.81,0,0,1,2.13-1.17,6.31,6.31,0,0,1,4.18,1.74C23.32,35.94,22,37.67,20.24,37.47Zm14-8a12.58,12.58,0,0,0-.62,3.64,7.61,7.61,0,0,0,.32,2.2,7.24,7.24,0,0,1-6.77-1.54C29.43,31.3,32.31,29.49,34.2,29.49Zm1.38,3.63a9.86,9.86,0,0,1,.49-2.85,2.9,2.9,0,0,1,.61,1.06,3.2,3.2,0,0,1,.15,1,2.4,2.4,0,0,1-.86,2c-.07,0-.14.06-.21.11A5.8,5.8,0,0,1,35.58,33.12Z"/><circle class="cls-5" cx="31.96" cy="30.98" r="22.08"/><circle class="cls-6" cx="29.83" cy="29.82" r="22.08"/><circle class="cls-7" cx="31.31" cy="30.54" r="22.08"/></svg>