<svg xmlns="http://www.w3.org/2000/svg" viewBox="0 0 200 215"><defs><style>.cls-1{fill:#3c3c3c;}</style></defs><title>hiyoko</title><g id="chick"><path class="cls-1" d="M126,171.74c-1.25-11.66-20.81-16-25.39-17.07a28.22,28.22,0,0,0-6.84-9c-3.21-2.65-7.94-3.07-11.85-2.07a12.07,12.07,0,0,0-4,1.82,11.49,11.49,0,0,0-4.17,5.82l-1.4,1.39s-2,1.61-1.86,3.24a9.67,9.67,0,0,1,3.4,0,13.07,13.07,0,0,1,1.34,2.65,8.58,8.58,0,0,1,.74,4.25c-.08,3.52-.33,7.63.79,11a30.65,30.65,0,0,0,2.82,6c2.37,3.85,5.71,7.48,10.1,9,.58.2,1.17.37,1.77.53a7.8,7.8,0,0,1,1.37,2.85c0,1.1.49,2.45-.73,4.4s-3.66,5.62-4.15,5.74-6.6.73-8.43.12a1.6,1.6,0,0,0-2,0s1.23.07,1.23.27v.21a.75.75,0,0,0,.14.69c.27.34,2.33.48,2.33.48l-.82.41s-1.24.48-1.37,1.5c0,0,.61-.54.89-.48,0,0,0,.72,1.57.69s6.17-.59,7.61-.59a5.83,5.83,0,0,1,2.91,1,3.34,3.34,0,0,0,2.68.42l.57.12-.68-.55s0-.6-.42-.78a62.08,62.08,0,0,1,10.19.76s-.45,1.57.59,1.57a2.13,2.13,0,0,0,1.64-1,15.9,15.9,0,0,0,1.64-.67c.37-.23.47-.84,1.29-2.48,0,0,2,1.45,1.76-.5a1,1,0,0,0-1.23-.95s2.35-6.27,3.24-7.39c.42-.52,1.52-2,2.57-3.49C119,189.36,127.07,181.89,126,171.74ZM93.94,204l-.92.63c-.37-.62-.55-1.26.21-1.37a3.47,3.47,0,0,1,2.46.55l.15.08A6.34,6.34,0,0,0,93.94,204Zm14-4.87c-1.25,2.38-1.59,3.5-2.7,4.26-.8.55-4.53-.36-5.12-.06,0,0-.67-.15-.6.74,0,0-1.34-.1-2.71-.15a.7.7,0,0,0,.24-.31s.83-.69,1.17-.07a1.13,1.13,0,0,0-1.11-.81s-.17-.75-1.63-.84c-1-.06-1.71-.13-2.06-.75s.14-2.06.82-3.22c1.21-2.05,2.56-4,3.84-6a3.65,3.65,0,0,1,1.32-1.16c2.11.28,4.22.54,6.25.9,1.11.67,3.52,2.08,3.62,2.69A9.18,9.18,0,0,1,108,199.08Z"/></g></svg>