<svg xmlns="http://www.w3.org/2000/svg" viewBox="0 0 200 215"><defs><style>.cls-1{fill:#3c3c3c;}</style></defs><title>chickenleg</title><g id="chickenleg"><path class="cls-1" d="M152.05,137.3c1.74-18.58,4.34-32.36,8.13-45.29,10.35-35.28,7.07-31.6-12.77-54-10.68-12.05-29-6.39-49.93-17.42C88.05,15.62,60.32,9,49.87,9,40.29,9,25.2,22.58,27.22,30.47,32.45,50.79,33,60.08,35.93,74c2.18,10.45,6.5,19.43,16.84,20.91,12.19,1.74,36,12.77,44.71,24.38,7.44,9.93,21.61,33.61,26.6,42.52a19,19,0,0,1,1.7,4.31l21.45-6.4-.39-2.74Z"/><path class="cls-1" d="M125.7,165.55l21.54-6.17A180.34,180.34,0,0,0,153,181.5c9.67,4.84,14.13,14.38,13.77,16-.66,2.88-4,7.09-7.21,4.34-.33,6-5.63,2.21-5.63,2.21s-.66,6.51-5.74,2.31c-.63,4.6-4.11,4.9-6.62,1.77.43,2.63-5.19,3-7.82,1.65-2.13-1.06-3.63-14.22-.58-21.79Z"/></g></svg>