<?xml version="1.0" encoding="utf-8"?>
<svg version="1.1" id="Area_" xmlns="http://www.w3.org/2000/svg" xmlns:xlink="http://www.w3.org/1999/xlink" x="0px" y="0px"
	 viewBox="0 0 61 27" style="enable-background:new 0 0 61 27;" xml:space="preserve">
<style type="text/css">
	.st0{fill:#FFFFFF;}
</style>
<title>Area∞</title>
<path class="st0" d="M51.4,0.6c-5,1.2-10,6.7-15.1,16.4l-0.5,1c-1.6-1.4-3.7-2.2-5.9-2.2c-1.6,0.1-3.1,0.9-4,2.2
	c-1,1.3-1.3,3-0.6,4.6c0.8,1.9,2.5,3.2,4.5,3.4c3.1,0.4,5.1-2,6.6-4.6c2.8,2.4,6.6,3.1,10,1.9c2.9,3,9.7,3,12.9,2.4
	c0.6-0.1,1-0.7,0.9-1.3c-0.1-0.6-0.7-1-1.3-0.9l0,0c-2.9,0.5-8.1,0.4-10.5-1.3c0.1-0.1,0.3-0.1,0.4-0.2c1.2-1,1.9-2.4,1.9-4
	c0-0.6-0.1-1.2-0.3-1.7c-0.3-1.1-1-2.1-2-2.7l0.7-1.5l0.5-1.1l1-2.4C52.3,4.8,53,3,53,2c0-0.4-0.1-0.7-0.3-1
	C52.4,0.6,51.9,0.5,51.4,0.6z M50.4,3.3c-0.5,1.2-1.2,3-1.8,4.3l-1,2.4l-0.5,1.1c-0.2,0.5-0.4,1-0.7,1.6c-0.2,0-0.4-0.1-0.6-0.1
	c-2.1,0.1-4.1,0.8-5.8,2.1C44.3,7.5,47.8,4.5,50.4,3.3L50.4,3.3z M30.2,23.7c-1.2-0.2-2.2-1-2.7-2.1c-0.4-0.8-0.2-1.7,0.3-2.3
	c0.6-0.8,1.4-1.2,2.4-1.3c1.7,0.1,3.4,0.7,4.7,2C33.6,22,32.1,23.9,30.2,23.7z M45.8,14.8c-0.4,1.3-0.7,2.7-0.7,4.1
	c0,0.8,0.1,1.7,0.4,2.5c-2.6,0.8-5.5,0.1-7.5-1.7C40.4,16.8,43.6,14.8,45.8,14.8z M47.3,18.8c0-1.1,0.2-2.2,0.5-3.2
	c0.3,0.3,0.5,0.7,0.7,1.2c0.1,0.3,0.2,0.7,0.2,1.1c0,0.8-0.3,1.7-1,2.2c-0.1,0.1-0.2,0.1-0.2,0.1C47.3,19.8,47.3,19.3,47.3,18.8
	L47.3,18.8z"/>
<g id="text">
	<path class="st0" d="M15.9,7.9c-0.2,0-0.5,0.1-0.6,0.2C15.1,8.2,15,8.5,15,8.7h1.8c0-0.2-0.1-0.5-0.2-0.6
		C16.4,7.9,16.1,7.9,15.9,7.9z"/>
	<path class="st0" d="M20.6,9.6c-0.1,0-0.2,0.1-0.3,0.2c-0.1,0.1-0.1,0.2-0.1,0.3s0,0.1,0,0.2c0,0.1,0.1,0.1,0.1,0.2
		c0.1,0,0.1,0.1,0.2,0.1s0.3,0,0.4,0s0.3,0,0.4-0.1s0.3-0.1,0.4-0.2V9.4l-0.6,0.1C20.9,9.5,20.8,9.5,20.6,9.6z"/>
	<polygon class="st0" points="5.7,9.2 7,9.2 6.3,7.2 	"/>
	<path class="st0" d="M26.4,7.9c-0.3,0-0.6,0.1-0.8,0.3c-0.2,0.2-0.4,0.5-0.4,0.8s0.1,0.6,0.3,0.8c0.2,0.2,0.5,0.3,0.8,0.3
		s0.6-0.2,0.7-0.4L27.6,9l-0.5-0.7C27,8,26.7,7.9,26.4,7.9z"/>
	<path class="st0" d="M32.3,4.2H3.2C1.9,4.1,0.8,5.1,0.6,6.4v4.5c0.1,1.3,1.3,2.3,2.6,2.2h29.1c1.3,0.1,2.5-0.9,2.6-2.2V6.4
		C34.9,5.1,33.7,4.1,32.3,4.2z M7.8,11.4l-0.4-1.1H5.3l-0.4,1.1H3.4l2.1-5.7h1.7l2.1,5.7H7.8z M13.1,8.4H13c-0.1,0-0.2,0-0.3,0h-0.3
		c-0.3,0-0.7,0.1-1,0.2v2.9H10V7.1h1.4v0.6c0.2-0.2,0.5-0.4,0.8-0.5c0.2-0.1,0.4-0.1,0.6-0.1h0.3V8.4z M18.1,9.5H15
		c0,0.3,0.1,0.6,0.4,0.8c0.3,0.2,0.6,0.3,1,0.3c0.3,0,0.6-0.1,0.8-0.2c0.2-0.1,0.4-0.2,0.6-0.3H18v1.1c-0.3,0.1-0.6,0.2-0.9,0.3
		s-0.6,0.1-0.9,0.1c-0.7,0.1-1.4-0.1-2-0.5c-0.5-0.4-0.7-1-0.7-1.6c0-0.7,0.2-1.3,0.7-1.7C14.7,7.2,15.4,7,16,7s1.1,0.1,1.6,0.5
		c0.4,0.4,0.5,1,0.5,1.5V9.5z M23.1,11.4h-1.4V11l-0.3,0.2c-0.1,0.1-0.2,0.1-0.3,0.2c-0.1,0.1-0.3,0.1-0.4,0.1c-0.2,0-0.3,0-0.5,0
		c-0.4,0-0.7-0.1-1-0.4c-0.3-0.3-0.4-0.6-0.4-1c0-0.3,0.1-0.5,0.2-0.8c0.1-0.2,0.4-0.4,0.6-0.5c0.3-0.1,0.6-0.2,0.9-0.2
		c0.4,0,0.8-0.1,1.2-0.1l0,0c0-0.2-0.1-0.4-0.3-0.5c-0.2,0-0.5,0-0.8,0c-0.2,0-0.5,0-0.7,0.1l-0.5,0.2h-0.1v-1
		c0.2-0.1,0.5-0.1,0.7-0.1c0.3-0.1,0.7-0.1,1-0.1c0.6,0,1.2,0.1,1.7,0.4c0.4,0.3,0.6,0.7,0.5,1.1L23.1,11.4z M31.4,10.4
		c-0.4,0.4-1,0.6-1.5,0.6c-0.6,0-1.1-0.2-1.4-0.7L28.2,10l-0.4,0.4c-0.3,0.4-0.8,0.7-1.4,0.7s-1.1-0.2-1.5-0.6
		c-0.4-0.4-0.7-0.9-0.6-1.5c0-0.5,0.2-1.1,0.5-1.5c0.4-0.5,1-0.7,1.6-0.7s1.1,0.3,1.5,0.7l0.3,0.4l0.3-0.4c0.3-0.5,0.9-0.7,1.4-0.7
		c0.6,0,1.1,0.2,1.5,0.6c0.3,0.4,0.5,0.8,0.6,1.3C32,9.4,31.8,10,31.4,10.4L31.4,10.4z"/>
	<path class="st0" d="M29.8,7.9c-0.3,0-0.5,0.1-0.7,0.4L28.7,9l0.5,0.7c0.2,0.2,0.4,0.4,0.7,0.4c0.3,0,0.6-0.1,0.8-0.3
		C30.9,9.6,31,9.3,31,9s-0.1-0.6-0.3-0.8C30.5,8,30.2,7.8,29.8,7.9z"/>
</g>
</svg>
