<svg id="logo.png" xmlns="http://www.w3.org/2000/svg" viewBox="0 0 200 200"><defs><style>.cls-1{fill:#231815;}.cls-2{fill:#f9f9f9;}</style></defs><title>favicon</title><rect class="cls-1" width="200" height="200" rx="10"/><path class="cls-2" d="M139.16,42.84c-22.23,5.34-44.94,30-67.47,73.32,0,0-2.17,4.26-2.19,4.31-8.61-6.68-17.92-10.26-26.32-9.68a24.25,24.25,0,0,0-17.8,9.69,19.91,19.91,0,0,0-2.71,20.43A25.93,25.93,0,0,0,43,156.29c13.86,1.62,23-9.21,29.58-20.38,13.9,11,30.16,13.9,44.89,8.31C130.33,157.75,161,157.69,175.37,155a5,5,0,1,0-1.85-9.81c-12.91,2.44-36.43,1.88-46.84-5.8.62-.41,1.31-.56,1.92-1,5.33-3.94,8.33-10.68,8.33-17.84a26.13,26.13,0,0,0-1.19-7.76,22.74,22.74,0,0,0-9.09-12.21c.92-2.26,1.85-4.51,2.77-6.69l2.14-5.13,4.57-10.66C143.33,61.54,146.5,53.62,146.5,49a6.25,6.25,0,0,0-1.44-4.29A5.78,5.78,0,0,0,139.16,42.84ZM134.84,55c-2,5.59-5.44,13.52-7.86,19.07l-4.66,10.88-2.09,5c-1,2.27-2,4.67-2.94,7.11a22.93,22.93,0,0,0-2.65-.48c-8.1-.25-17.24,3.57-25.79,9.25C107.54,73.91,123.26,60.29,134.84,55ZM44.13,146.37a15.89,15.89,0,0,1-12.24-9.31,9.93,9.93,0,0,1,1.36-10.43,14.18,14.18,0,0,1,10.61-5.88c6.3-.44,13.89,2.88,20.91,8.72C59.53,138.74,52.88,147.39,44.13,146.37Zm69.73-39.81a61.11,61.11,0,0,0-3.13,18.15,38.19,38.19,0,0,0,1.62,11c-12.53,4.09-24.68-.44-33.8-7.69C90,115.59,104.41,106.57,113.86,106.56Zm6.84,18.09a50,50,0,0,1,2.47-14.23,14.48,14.48,0,0,1,3,5.3,16,16,0,0,1,.74,4.8c0,4-1.54,7.77-4.28,9.79-.36.26-.71.32-1.06.56A29.65,29.65,0,0,1,120.7,124.65Z"/></svg>